<svg width="800" height="600" viewBox="0 0 800 600" fill="none" xmlns="http://www.w3.org/2000/svg">
  <!-- Background -->
  <rect width="800" height="600" fill="#F8FAFC"/>
  
  <!-- Dashboard Container -->
  <rect x="50" y="50" width="700" height="500" rx="12" fill="white" stroke="#E2E8F0" stroke-width="2"/>
  
  <!-- Header -->
  <rect x="50" y="50" width="700" height="60" rx="12" fill="#2563EB"/>
  <rect x="50" y="98" width="700" height="2" fill="#E2E8F0"/>
  
  <!-- Logo/Title Area -->
  <rect x="70" y="70" width="120" height="20" rx="4" fill="white" opacity="0.9"/>
  
  <!-- Navigation -->
  <rect x="620" y="70" width="60" height="20" rx="4" fill="white" opacity="0.7"/>
  <rect x="690" y="70" width="50" height="20" rx="4" fill="white" opacity="0.7"/>
  
  <!-- Sidebar -->
  <rect x="70" y="130" width="180" height="400" fill="#F8FAFC" stroke="#E2E8F0"/>
  
  <!-- Sidebar Items -->
  <rect x="90" y="150" width="140" height="12" fill="#6B7280"/>
  <rect x="90" y="180" width="100" height="12" fill="#3B82F6"/>
  <rect x="90" y="210" width="120" height="12" fill="#6B7280"/>
  <rect x="90" y="240" width="80" height="12" fill="#6B7280"/>
  <rect x="90" y="270" width="110" height="12" fill="#6B7280"/>
  
  <!-- Main Content Area -->
  <rect x="270" y="130" width="460" height="400" fill="white"/>
  
  <!-- Charts/Graphs -->
  <!-- Bar Chart -->
  <rect x="290" y="160" width="200" height="120" fill="#F1F5F9" stroke="#E2E8F0"/>
  <rect x="310" y="240" width="20" height="20" fill="#3B82F6"/>
  <rect x="340" y="220" width="20" height="40" fill="#10B981"/>
  <rect x="370" y="200" width="20" height="60" fill="#F59E0B"/>
  <rect x="400" y="230" width="20" height="30" fill="#EF4444"/>
  <rect x="430" y="210" width="20" height="50" fill="#8B5CF6"/>
  
  <!-- Line Chart -->
  <rect x="510" y="160" width="200" height="120" fill="#F1F5F9" stroke="#E2E8F0"/>
  <polyline points="530,240 560,220 590,200 620,190 650,210 680,180" stroke="#3B82F6" stroke-width="3" fill="none"/>
  <polyline points="530,250 560,235 590,215 620,205 650,225 680,195" stroke="#10B981" stroke-width="3" fill="none"/>
  
  <!-- Data Tables -->
  <rect x="290" y="300" width="420" height="200" fill="#F8FAFC" stroke="#E2E8F0"/>
  
  <!-- Table Headers -->
  <rect x="310" y="320" width="80" height="16" fill="#6B7280"/>
  <rect x="410" y="320" width="100" height="16" fill="#6B7280"/>
  <rect x="530" y="320" width="80" height="16" fill="#6B7280"/>
  <rect x="630" y="320" width="60" height="16" fill="#6B7280"/>
  
  <!-- Table Rows -->
  <rect x="310" y="350" width="380" height="1" fill="#E2E8F0"/>
  <rect x="310" y="370" width="380" height="1" fill="#E2E8F0"/>
  <rect x="310" y="390" width="380" height="1" fill="#E2E8F0"/>
  <rect x="310" y="410" width="380" height="1" fill="#E2E8F0"/>
  <rect x="310" y="430" width="380" height="1" fill="#E2E8F0"/>
  
  <!-- Table Data -->
  <rect x="310" y="355" width="60" height="10" fill="#94A3B8"/>
  <rect x="410" y="355" width="80" height="10" fill="#94A3B8"/>
  <rect x="530" y="355" width="50" height="10" fill="#10B981"/>
  
  <rect x="310" y="375" width="70" height="10" fill="#94A3B8"/>
  <rect x="410" y="375" width="90" height="10" fill="#94A3B8"/>
  <rect x="530" y="375" width="40" height="10" fill="#3B82F6"/>
  
  <rect x="310" y="395" width="50" height="10" fill="#94A3B8"/>
  <rect x="410" y="395" width="75" height="10" fill="#94A3B8"/>
  <rect x="530" y="395" width="55" height="10" fill="#F59E0B"/>
  
  <!-- Icons -->
  <!-- Gear Icon -->
  <g transform="translate(650, 140)">
    <circle cx="15" cy="15" r="6" stroke="#6B7280" stroke-width="2" fill="none"/>
    <circle cx="15" cy="15" r="3" fill="#6B7280"/>
    <rect x="13" y="5" width="4" height="6" fill="#6B7280"/>
    <rect x="13" y="19" width="4" height="6" fill="#6B7280"/>
    <rect x="5" y="13" width="6" height="4" fill="#6B7280"/>
    <rect x="19" y="13" width="6" height="4" fill="#6B7280"/>
  </g>
  
  <!-- Chart Icon -->
  <g transform="translate(680, 140)">
    <rect x="5" y="5" width="20" height="20" stroke="#6B7280" stroke-width="2" fill="none"/>
    <polyline points="8,18 12,14 16,16 22,10" stroke="#3B82F6" stroke-width="2" fill="none"/>
  </g>
  
  <!-- Title -->
  <text x="400" y="30" text-anchor="middle" font-family="Inter, sans-serif" font-size="24" font-weight="600" fill="#1E293B">
    Software Empresarial
  </text>
</svg> 